<svg viewBox="0 0 240 310" width="240" height="310" xmlns="http://www.w3.org/2000/svg" data-page-node-id="3gHQIgheAUNj5aHTKsFXmx">
<defs data-page-node-id="oLv9AShdedeh2rROb0IEau">

<linearGradient id="skin" x1="0" y1="0" x2="0" y2="1" data-page-node-id="izN9cHhG0mC7cbf7FqsZNq"><stop offset="0" stop-color="#ffecd8" data-page-node-id="P93mL4IX8ZvZW8WMzTaYMN"/><stop offset="1" stop-color="#ffd3af" data-page-node-id="n1koHcaAwDhJDFlPOE8JW3"/></linearGradient>
<linearGradient id="robe" x1="0" y1="0" x2="0" y2="1" data-page-node-id="9aSLmleePqoZxDffJ44c8n"><stop offset="0" stop-color="#f5f8ff" data-page-node-id="G0YWnFIqCHf6JnVy4t9Ofd"/><stop offset=".5" stop-color="#c4d3f3" data-page-node-id="2T5Xo3jxZjQR5K5gZkyner"/><stop offset="1" stop-color="#8ca4dc" data-page-node-id="SjFOLDS0LQDNiMnYsHwQ22"/></linearGradient>
<linearGradient id="evilRing" x1="0" y1="0" x2="1" y2="1" data-page-node-id="MUAmcENiMa5q3agsVoidAT"><stop offset="0" stop-color="#100a18" data-page-node-id="N24e2NTJq6yYPf1BHpNfrN"/><stop offset=".18" stop-color="#3c174f" data-page-node-id="fG6l3QR0GefWn2He6yPS0F"/><stop offset=".37" stop-color="#b6488e" data-page-node-id="OE3boyNOrrPMbokmP8TrcQ"/><stop offset=".53" stop-color="#31143f" data-page-node-id="YD81JhwPvLyAP9U4nyYOsG"/><stop offset=".72" stop-color="#7631a2" data-page-node-id="Q2vc4uQ4sUFzJ0ytJPXusD"/><stop offset=".88" stop-color="#c9446d" data-page-node-id="BLWkD47McOOUa9gaRpuz5K"/><stop offset="1" stop-color="#100a18" data-page-node-id="EffAlQtABYvTkK4GCEyeFa"/></linearGradient>
<linearGradient id="evilBolt" x1="0" y1="0" x2="0" y2="1" data-page-node-id="C421N8hFGmegtb0c2SMI7K"><stop offset="0" stop-color="#fff" data-page-node-id="WJldYG9YsNrvxvNC6CywG0"/><stop offset=".18" stop-color="#f4ebff" data-page-node-id="P4EYWnj3AGxi9hgjVrk62D"/><stop offset=".45" stop-color="#c698ff" data-page-node-id="sIY5H86DGBOXre6bDDzCcr"/><stop offset=".72" stop-color="#865fff" data-page-node-id="o7gmYV0NMrgndyPHEmECM7"/><stop offset="1" stop-color="#4c246d" data-page-node-id="dC8ruSSkplQ4Wc6OjZoQZZ"/></linearGradient>
<radialGradient id="evilGlow" data-page-node-id="ueAvwvSgN7qMrmsleecLQC"><stop offset="0" stop-color="#db8cff" stop-opacity=".86" data-page-node-id="x6VoJAvtLp7DAsTdSyV9pj"/><stop offset=".24" stop-color="#903fc1" stop-opacity=".54" data-page-node-id="RA4oj4L7QX3LemsBHepdjt"/><stop offset=".56" stop-color="#472057" stop-opacity=".27" data-page-node-id="2W6wliMdPIdKprrgi7SrqM"/><stop offset="1" stop-color="#130a1a" stop-opacity="0" data-page-node-id="IKkfC7D7zqaJ3A4zzLOp7I"/></radialGradient>
<radialGradient id="eyeGlow" data-page-node-id="kAijDHVnlQvrS5HuzjzvX1"><stop offset="0" stop-color="#fff" data-page-node-id="kMPafr1lilGqHhV1Ex33Rz"/><stop offset=".14" stop-color="#f0d5ff" data-page-node-id="fmakZfJO7D4XUJcgrAahZn"/><stop offset=".38" stop-color="#cb61e9" data-page-node-id="oa58r5zuklr9uzBzidBeRz"/><stop offset=".7" stop-color="#792891" data-page-node-id="UFKKVBdKt3pt974MR6IpzE"/><stop offset="1" stop-color="#1a0d23" stop-opacity="0" data-page-node-id="vxfRzdhg5cf2JdEXh1uxUG"/></radialGradient>
<radialGradient id="impactGlow" data-page-node-id="fmRyYjMYBYAXaPMDLjkdb1"><stop offset="0" stop-color="#fff" data-page-node-id="dfPhULM3TFDbqocS8M3Odx"/><stop offset=".22" stop-color="#eee5ff" stop-opacity=".98" data-page-node-id="CbcVUs3wWQz4tmnytRzyAj"/><stop offset=".55" stop-color="#ac88ff" stop-opacity=".52" data-page-node-id="MoI8ysJGTtpPWikAHM1LYE"/><stop offset="1" stop-color="#6841bb" stop-opacity="0" data-page-node-id="1lIO2sx6z8qsrtVgzD8HXq"/></radialGradient>
<radialGradient id="irisGrad" data-page-node-id="Ng5bb5FoyJcWEbBxnqVKCq"><stop offset="0" stop-color="#fff" data-page-node-id="QjJIVnxNyewtu0049gbKP2"/><stop offset=".16" stop-color="#fbe2ff" data-page-node-id="7rrWw6Ui6woEPa5ht4wdhR"/><stop offset=".42" stop-color="#e26df2" data-page-node-id="AGadPP6m06P0Q4pzvym5D1"/><stop offset=".72" stop-color="#9b2fbd" data-page-node-id="vbx6tAhKW4gmVYDu2mZIiA"/><stop offset="1" stop-color="#42065e" data-page-node-id="i81sBt5vb7I5DWxGN65NGg"/></radialGradient>
<radialGradient id="pupilDepth" cx=".52" cy=".55" r=".62"><stop offset="0" stop-color="#08030f"/><stop offset=".46" stop-color="#180821" stop-opacity=".96"/><stop offset="1" stop-color="#541767" stop-opacity="0"/></radialGradient>
<linearGradient id="diamondGrad" x1="0" y1="0" x2="0" y2="1" data-page-node-id="u4N3wpIoxd96McUexEcc7D"><stop offset="0" stop-color="#f0abfc" data-page-node-id="o1KPPF6nElgypWfCfDCQor"/><stop offset=".5" stop-color="#a21caf" data-page-node-id="JQyUkANCYgLFMu1oSHByXG"/><stop offset="1" stop-color="#4a0e5c" data-page-node-id="T91omYd97IEfeftAGipr0J"/></linearGradient>
<linearGradient id="hexEdge" x1="0" y1="0" x2="1" y2="1"><stop offset="0" stop-color="#3a124b"/><stop offset=".32" stop-color="#bd68d0"/><stop offset=".68" stop-color="#542065"/><stop offset="1" stop-color="#d182df"/></linearGradient>
<radialGradient id="hexVoid"><stop offset="0" stop-color="#13061b" stop-opacity=".72"/><stop offset=".52" stop-color="#341044" stop-opacity=".43"/><stop offset=".83" stop-color="#291033" stop-opacity=".18"/><stop offset="1" stop-color="#100617" stop-opacity="0"/></radialGradient>
<filter id="glow" x="-180%" y="-180%" width="460%" height="460%" data-page-node-id="QzuvbqXXf8KzTjN9VdWLG4"><feGaussianBlur stdDeviation="2.5" result="b" data-page-node-id="rN0obvHlACnCBBBVuFflHS"/><feMerge data-page-node-id="1HwuxZuj0sC4RmGZ3lrmtC"><feMergeNode in="b" data-page-node-id="1BEA0bDjIFakHtHBjF0Uaq"/><feMergeNode in="SourceGraphic" data-page-node-id="LFDHDCvW0ov5vZLS7wQo8y"/></feMerge></filter>
<filter id="bigGlow" x="-180%" y="-130%" width="460%" height="360%" data-page-node-id="M7SpZaqo6J1fO49FNjDhT0"><feGaussianBlur stdDeviation="5" result="b" data-page-node-id="ENTeOZDzj1OCkgstskYgof"/><feMerge data-page-node-id="Jf26OH1TqM2Xlq7xa7f80A"><feMergeNode in="b" data-page-node-id="7mLdYfAHzttg1jg0Yqw62y"/><feMergeNode in="SourceGraphic" data-page-node-id="gMCJZ9rZEF5vmwylY3fOEh"/></feMerge></filter>

<style>
.pulse{animation:pulse 4s linear infinite}
.energy{stroke-dasharray:7 12;animation:flow .376s linear infinite,energy 4s linear infinite}
.preArc{animation:preArc 4s linear infinite}
.cornerFlash{animation:cornerFlash 4s linear infinite}
.mainBolt{animation:boltAnim 4s linear infinite}
.impact{transform-box:fill-box;transform-origin:center;animation:impactAnim 4s linear infinite}
.wave1{transform-box:fill-box;transform-origin:center;animation:wave1 4s linear infinite}
.wave2{transform-box:fill-box;transform-origin:center;animation:wave2 4s linear infinite}
.flash{animation:flash 4s linear infinite}
.spark{animation:spark 4s linear infinite}
#tribulation-array,#orbiting-diamonds-front{opacity:0;transition:opacity .7s ease 1s;pointer-events:none}
svg.hover-active #tribulation-array,svg.hover-active #orbiting-diamonds-front{opacity:1;transition:opacity .2s ease 0s}

/* ==== 法阵动画 ==== */
.ringA{transform-box:fill-box;transform-origin:center;animation:spin 26s linear infinite}
.ringB{transform-box:fill-box;transform-origin:center;animation:spinR 15s linear infinite}
.ringC{transform-box:fill-box;transform-origin:center;animation:spin 42s linear infinite}
.eyeBreath{transform-box:fill-box;transform-origin:center;animation:eyeBreath 4s linear infinite}
.irisCharge{animation:irisCharge 4s linear infinite}

.person{transform-box:fill-box;transform-origin:center bottom;animation:bob 2.7s ease-in-out infinite}
.shake{transform-box:fill-box;transform-origin:center;animation:shake 4s linear infinite}
.bodyColor{animation:burn 4s linear infinite}
.hairL{transform-box:fill-box;transform-origin:top right;animation:hairL 1.1s ease-in-out infinite alternate}
.hairR{transform-box:fill-box;transform-origin:top left;animation:hairR 1s ease-in-out infinite alternate}
.pony{transform-box:fill-box;transform-origin:bottom left;animation:pony .95s ease-in-out infinite alternate}
.shockFace{animation:shockFace 4s linear infinite}
.zapHair{animation:zapHair 4s linear infinite}
.tear{animation:tear 1.6s ease-in infinite}
.smoke1{animation:smoke 4s linear infinite}
.smoke2{animation:smoke 4s linear infinite .109s}
.smoke3{animation:smoke 4s linear infinite .205s}
.residual1{animation:residual 4s linear infinite}
.residual2{animation:residual 4s linear infinite .082s}

@keyframes spin{to{transform:rotate(360deg)}}
@keyframes spinR{to{transform:rotate(-360deg)}}
@keyframes flow{to{stroke-dashoffset:-38}}

@keyframes pulse{
0%,46.358%{opacity:.32}
63.438%{opacity:.5}
74.417%{opacity:.75}
81.737%{opacity:1}
85.397%{opacity:.62}
100%{opacity:.32}
}

@keyframes energy{
0%,51.238%{opacity:.2}
67.098%{opacity:.5}
76.857%{opacity:.88}
82.957%{opacity:1}
85.884%,100%{opacity:.26}
}

/* 恶魔之眼：保持正面朝向下方，仅呼吸 + 雷击瞬间充能爆发 */
@keyframes eyeBreath{
0%,51.238%,100%{transform:scale(.985)}
75.637%{transform:scale(1.025)}
86.371%{transform:scale(1)}
87.831%{transform:scale(1.045)}
91.238%{transform:scale(.99)}
}

@keyframes irisCharge{
0%,54.898%{opacity:.72}
70.758%{opacity:.92}
80.517%,86.371%{opacity:1}
90.265%,100%{opacity:.72}
}

@keyframes preArc{
0%,63.438%{opacity:0}
68.318%{opacity:.25}
73.198%{opacity:.9}
76.857%{opacity:.2}
80.517%{opacity:1}
84.177%{opacity:.4}
85.397%,100%{opacity:0}
}

@keyframes cornerFlash{
0%,59.778%{opacity:0}
64.658%{opacity:.3}
69.538%{opacity:1}
73.198%{opacity:.16}
76.857%{opacity:.85}
80.517%{opacity:.2}
84.177%{opacity:1}
85.884%,100%{opacity:0}
}

@keyframes boltAnim{
0%,84.177%{opacity:0}
85.397%{opacity:1}
86.371%{opacity:.16}
86.857%{opacity:1}
87.831%{opacity:.42}
88.804%{opacity:1}
89.778%,100%{opacity:0}
}

@keyframes impactAnim{
0%,87.344%{opacity:0;transform:scale(.25)}
87.831%{opacity:1;transform:scale(.8)}
89.778%{opacity:.95;transform:scale(1.2)}
92.699%{opacity:0;transform:scale(1.65)}
100%{opacity:0}
}

@keyframes wave1{
0%,87.344%{opacity:0;transform:scale(.3)}
88.318%{opacity:.9;transform:scale(.45)}
93.185%{opacity:0;transform:scale(1.55)}
100%{opacity:0}
}

@keyframes wave2{
0%,88.318%{opacity:0;transform:scale(.35)}
89.778%{opacity:.6;transform:scale(.5)}
96.106%{opacity:0;transform:scale(1.75)}
100%{opacity:0}
}

@keyframes flash{
0%,87.344%{opacity:0}
87.831%{opacity:.72}
88.804%{opacity:.1}
89.291%{opacity:.52}
91.238%{opacity:.04}
92.699%,100%{opacity:0}
}

@keyframes spark{
0%,87.344%{opacity:0;transform:translate(0,0) scale(.3)}
88.318%{opacity:1}
94.159%{opacity:0;transform:translate(var(--x),var(--y)) scale(1)}
100%{opacity:0}
}

@keyframes bob{
0%,100%{transform:translateY(0)}
50%{transform:translateY(-3px)}
}

@keyframes shake{
0%,87.344%,93.672%,100%{transform:translate(0)}
87.831%{transform:translate(-3px,1px) rotate(-1deg)}
88.804%{transform:translate(3px,-1px) rotate(1deg)}
89.778%{transform:translate(-3px,0) rotate(-1deg)}
90.751%{transform:translate(3px,1px) rotate(1deg)}
91.725%{transform:translate(-2px,-1px)}
92.699%{transform:translate(2px,0)}
}

@keyframes burn{
0%,87.344%{filter:none}
87.831%,99.757%{filter:brightness(.1) saturate(.08) contrast(1.18)}
100%{filter:none}
}

@keyframes hairL{from{transform:rotate(2deg)}to{transform:rotate(-6deg)}}
@keyframes hairR{from{transform:rotate(-2deg)}to{transform:rotate(6deg)}}
@keyframes pony{from{transform:rotate(-5deg)}to{transform:rotate(7deg)}}

@keyframes shockFace{
0%,86.857%{opacity:0}
87.831%,99.513%{opacity:1}
100%{opacity:0}
}

@keyframes zapHair{
0%,84.177%{opacity:0}
85.397%,90.751%{opacity:1}
91.238%,100%{opacity:0}
}

@keyframes tear{
0%{opacity:0;transform:translateY(0)}
18%{opacity:1}
78%{opacity:1;transform:translateY(10px)}
100%{opacity:0;transform:translateY(15px)}
}

@keyframes smoke{
0%,87.831%{opacity:0;transform:translateY(0) scale(.45)}
89.778%{opacity:.7}
99.513%{opacity:0;transform:translate(5px,-26px) scale(1.4)}
100%{opacity:0}
}

@keyframes residual{
0%,88.804%{opacity:0}
90.265%{opacity:.95}
92.212%{opacity:.1}
94.159%{opacity:.8}
96.593%,100%{opacity:0}
}
</style>
</defs>

<rect x="-25" y="-5" width="290" height="315" fill="transparent" pointer-events="all"/>

<!-- ==================== 修士脚下的恶魔之眼天劫阵 ==================== -->
<g id="tribulation-array" transform="translate(0 226)" data-page-node-id="sJAGgDwVmQAe0tbqrSIpDw">
  <ellipse class="pulse" cx="120" cy="34" rx="107" ry="34" fill="url(#evilGlow)" opacity=".42"/>

  <!-- 单层六芒星悬浮于透视平面，外围由断续尖角咒纹围合。 -->
  <g transform="translate(120 34) scale(1 .29)">
    <circle r="136.5" fill="url(#hexVoid)" opacity=".78"/>
    <g class="ringA">
      <g transform="scale(1.3)">
        <path d="M0-72 L22-37 L63-36 L43 0 L63 36 L22 37 L0 72 L-22 37 L-63 36 L-43 0 L-63-36 L-22-37Z" fill="#13051c" fill-opacity=".72" stroke="#1b0722" stroke-width="4.5" stroke-linejoin="round"/>
        <path d="M0-72 L22-37 L63-36 L43 0 L63 36 L22 37 L0 72 L-22 37 L-63 36 L-43 0 L-63-36 L-22-37Z" fill="none" stroke="#67267d" stroke-width="2" stroke-linejoin="round" filter="url(#glow)" opacity=".85"/>
        <path d="M0-72 L22-37 L63-36 L43 0 L63 36 L22 37 L0 72 L-22 37 L-63 36 L-43 0 L-63-36 L-22-37Z" fill="none" stroke="url(#hexEdge)" stroke-width=".85" stroke-linejoin="round"/>
        <path d="M0-72 L63 36 L-63 36Z M0 72 L-63-36 L63-36Z" fill="none" stroke="#a053ba" stroke-width=".7" opacity=".55"/>
      </g>
      <g fill="none" stroke="#9d50b8" stroke-width=".85" stroke-linecap="round" opacity=".75">
        <g transform="rotate(0)"><path d="M-11-78 Q0-83 11-78"/><path d="M0-70 V-76"/></g>
        <g transform="rotate(60)"><path d="M-11-78 Q0-83 11-78"/><path d="M0-70 V-76"/></g>
        <g transform="rotate(120)"><path d="M-11-78 Q0-83 11-78"/><path d="M0-70 V-76"/></g>
        <g transform="rotate(180)"><path d="M-11-78 Q0-83 11-78"/><path d="M0-70 V-76"/></g>
        <g transform="rotate(240)"><path d="M-11-78 Q0-83 11-78"/><path d="M0-70 V-76"/></g>
        <g transform="rotate(300)"><path d="M-11-78 Q0-83 11-78"/><path d="M0-70 V-76"/></g>
      </g>
    </g>
    <g class="ringB">
      <g transform="scale(1.3)">
      <g fill="#17081f" stroke="#5b246d" stroke-width="1.6" stroke-linejoin="round" opacity=".88">
        <g transform="rotate(0)"><path d="M-22-87 Q-9-90 0-106 Q9-90 22-87 L10-86 L0-97 L-10-86Z"/></g>
        <g transform="rotate(60)"><path d="M-22-87 Q-9-90 0-106 Q9-90 22-87 L10-86 L0-97 L-10-86Z"/></g>
        <g transform="rotate(120)"><path d="M-22-87 Q-9-90 0-106 Q9-90 22-87 L10-86 L0-97 L-10-86Z"/></g>
        <g transform="rotate(180)"><path d="M-22-87 Q-9-90 0-106 Q9-90 22-87 L10-86 L0-97 L-10-86Z"/></g>
        <g transform="rotate(240)"><path d="M-22-87 Q-9-90 0-106 Q9-90 22-87 L10-86 L0-97 L-10-86Z"/></g>
        <g transform="rotate(300)"><path d="M-22-87 Q-9-90 0-106 Q9-90 22-87 L10-86 L0-97 L-10-86Z"/></g>
      </g>
      <g fill="none" stroke="url(#hexEdge)" stroke-width=".9" stroke-linecap="round" stroke-linejoin="round" opacity=".88">
        <g transform="rotate(0)"><path d="M-17-89 L-7-92 L0-102 L7-92 L17-89"/></g>
        <g transform="rotate(60)"><path d="M-17-89 L-7-92 L0-102 L7-92 L17-89"/></g>
        <g transform="rotate(120)"><path d="M-17-89 L-7-92 L0-102 L7-92 L17-89"/></g>
        <g transform="rotate(180)"><path d="M-17-89 L-7-92 L0-102 L7-92 L17-89"/></g>
        <g transform="rotate(240)"><path d="M-17-89 L-7-92 L0-102 L7-92 L17-89"/></g>
        <g transform="rotate(300)"><path d="M-17-89 L-7-92 L0-102 L7-92 L17-89"/></g>
      </g>
      <g fill="none" stroke="#9342a7" stroke-width=".8" stroke-linejoin="round" opacity=".72">
        <g transform="rotate(30)"><path d="M-5-86 L0-92 L5-86"/></g>
        <g transform="rotate(90)"><path d="M-5-86 L0-92 L5-86"/></g>
        <g transform="rotate(150)"><path d="M-5-86 L0-92 L5-86"/></g>
        <g transform="rotate(210)"><path d="M-5-86 L0-92 L5-86"/></g>
        <g transform="rotate(270)"><path d="M-5-86 L0-92 L5-86"/></g>
        <g transform="rotate(330)"><path d="M-5-86 L0-92 L5-86"/></g>
      </g>
      </g>
    </g>
    <g class="energy" fill="none" stroke="#cb82d7" stroke-width="1.5" opacity=".58">
      <g transform="rotate(0)"><path d="M-14-82 L-5-87 L0-93 L5-87 L14-82"/></g>
      <g transform="rotate(60)"><path d="M-14-82 L-5-87 L0-93 L5-87 L14-82"/></g>
      <g transform="rotate(120)"><path d="M-14-82 L-5-87 L0-93 L5-87 L14-82"/></g>
      <g transform="rotate(180)"><path d="M-14-82 L-5-87 L0-93 L5-87 L14-82"/></g>
      <g transform="rotate(240)"><path d="M-14-82 L-5-87 L0-93 L5-87 L14-82"/></g>
      <g transform="rotate(300)"><path d="M-14-82 L-5-87 L0-93 L5-87 L14-82"/></g>
    </g>
  </g>
  <!-- 内缘仍按原速旋转，但整组位于眼睛后方。 -->
  <g transform="translate(120 34) scale(1 .29)">
    <g class="ringC">
        <circle r="57" fill="none" stroke="#250b31" stroke-width="3.2" stroke-dasharray="40 17 12 23" opacity=".78"/>
        <circle r="56" fill="none" stroke="url(#hexEdge)" stroke-width=".85" stroke-dasharray="40 17 12 23" opacity=".82"/>
        <circle r="49" fill="none" stroke="#aa5cbf" stroke-width=".65" stroke-dasharray="17 18" opacity=".48"/>
        <g fill="none" stroke="#a85abe" stroke-width=".85" stroke-linecap="round" stroke-linejoin="round" opacity=".8">
        <g transform="rotate(0)"><path d="M-4-54 L0-49 L4-54"/></g>
        <g transform="rotate(60)"><path d="M-4-54 L0-49 L4-54"/></g>
        <g transform="rotate(120)"><path d="M-4-54 L0-49 L4-54"/></g>
        <g transform="rotate(180)"><path d="M-4-54 L0-49 L4-54"/></g>
        <g transform="rotate(240)"><path d="M-4-54 L0-49 L4-54"/></g>
        <g transform="rotate(300)"><path d="M-4-54 L0-49 L4-54"/></g>
        </g>
      </g>
  </g>
  <ellipse cx="120" cy="34" rx="44" ry="12" fill="#0d0415" opacity=".38"/>

  <!-- 原蓄雷闪光保留，改为贴合法阵边缘的短弧。 -->
  <g class="cornerFlash" fill="none" stroke-linecap="round" filter="url(#glow)">
    <path d="M35 23 Q48 13 65 14 M205 23 Q192 13 175 14" stroke="#bc76f0" stroke-width="2"/>
    <path d="M45 45 Q57 54 71 54 M195 45 Q183 54 169 54" stroke="#f0d2ff" stroke-width="1.3"/>
  </g>

  <!-- 阵心的恶魔之眼，只作轻微呼吸与充能。 -->
  <g class="eyeBreath">
    <g transform="translate(120 34) scale(.54 .46) translate(-120 -34)">
<!-- 眼睛整体前倾压扁 + 瞳孔下移 = 向下俯视 -->
<g transform="translate(120 34) scale(1 .86) translate(-120 -34)" data-page-node-id="ez3DMV3qscgLdGroGfWxzc">
<ellipse cx="120" cy="34" rx="64" ry="27" fill="url(#eyeGlow)" opacity=".55" data-page-node-id="S2fjwPgkrEd8AWFF9sWlC8"/>

<!-- 眼睑亮弧 -->
<path d="M81 30 Q120 12 159 30" fill="none" stroke="#e879f9" stroke-width="1.8" opacity=".8" data-page-node-id="0wQU5hsTLQtldHwxByHGXe"/>
<path d="M81 38 Q120 56 159 38" fill="none" stroke="#e879f9" stroke-width="1.8" opacity=".8" data-page-node-id="qXP8gcMFLFyL9CbC7PWLCf"/>

<!-- 主眼形 -->
<path d="M72 34 Q120 8 168 34 Q120 60 72 34Z" fill="#150a1e" stroke="#a855f7" stroke-width="2.5" filter="url(#glow)" data-page-node-id="FbfKuwO31HDgmWkmkFHTrZ"/>

<!-- 虹膜 + 放射丝（位置偏低，看向下方），雷击前充能发亮 -->
<g class="irisCharge" data-page-node-id="MFrDYxJakbGh2aeTcPNPCF">
<ellipse cx="120" cy="39" rx="27" ry="17" fill="url(#irisGrad)" data-page-node-id="AgfQf8nicIyVNArojRYYdE"/>
<g stroke="#fdf4ff" stroke-width="1" opacity=".55" stroke-linecap="round" data-page-node-id="u7hGoX0E8qq9kOGrCNNQMW">
<path d="M126 43 L145 45" data-page-node-id="aLhAYYa4i15TJ8lwA5UUjd"/>
<path d="M123 50 L135 53" data-page-node-id="BQWlybrTsN40zGin76NLMr"/>
<path d="M120 52 L120 56" data-page-node-id="ScYGfVVQDPohcQgQj4Oajr"/>
<path d="M117 50 L105 53" data-page-node-id="05P4hHbzVsoGBxMfnGm53s"/>
<path d="M114 43 L95 45" data-page-node-id="qLJXNSJd6UVO7kWDvXQbwM"/>
<path d="M114 35 L95 33" data-page-node-id="88OMfuvmLVXW9MEJXU5TRA"/>
<path d="M117 28 L105 25" data-page-node-id="FiPQD3UPoBFKCiYBCVW0RQ"/>
<path d="M120 26 L120 22" data-page-node-id="NOHnxcUz6GWrEm6dCuTrC5"/>
<path d="M123 28 L135 25" data-page-node-id="CtGpzb1oLG5n6YIbRrzDLu"/>
<path d="M126 35 L145 33" data-page-node-id="ryNutooC4VTaj5ugUmCelL"/>
</g>
</g>

<!-- 柔化并下移的瞳孔，暗色向虹膜渐隐。 -->
<ellipse cx="122" cy="40" rx="17" ry="11" fill="url(#pupilDepth)"/>
<path d="M113 40 Q120 34 129 38 Q126 45 117 45 Q120 41 113 40Z" fill="#100617" opacity=".83"/>
<path d="M123 36 Q128 37 129 39" fill="none" stroke="#d082e5" stroke-width=".7" opacity=".5"/>

<!-- 上眼睑阴影，压住虹膜上缘，强化俯视感 -->
<path d="M76 33 Q120 9 164 33 Q120 21 76 33Z" fill="#0d0616" opacity=".55" data-page-node-id="qpxH3RkYD9qJSMQQLF2ufU"/>

<ellipse cx="111" cy="31" rx="3" ry="2" fill="#fff" opacity=".8" data-page-node-id="WO22PtcpbWsi5GcDnb5ulu"/>
</g>
    </g>
  </g>

  <!-- 环绕粒子的后半圈，抵消阵法位移，始终绘制在人物身后。 -->
  <g id="orbiting-diamonds-back" transform="translate(0 -226)" filter="url(#glow)" pointer-events="none"></g>

  <g class="preArc" fill="none" stroke-linecap="round" filter="url(#glow)">
    <path d="M42 30 L50 24 L54 30 L63 22 M198 30 L190 24 L186 30 L177 22" stroke="#b874f2" stroke-width="1.7"/>
    <path d="M68 50 L80 44 L87 50 M172 50 L160 44 L153 50" stroke="#e2c0ff" stroke-width="1.3"/>
  </g>
</g>

<!-- ==================== 人物 ==================== -->
<g transform="translate(0 24)" data-page-node-id="HdkAxcPAai4LAgFsnaJiVb">
<g class="person" data-page-node-id="VsSKBhlV74BQdLVx1kMFj7">
<g class="shake" data-page-node-id="Kb3aveKaZ8AsjDCZNmORqy">

<!-- 变黑的是人物主体 -->
<g class="bodyColor" data-page-node-id="HEk7WqaqYqQQti8vjqkJNB">

<!-- 身后长发 -->
<path class="hairL" d="M88 104 Q72 137 76 190 Q89 173 97 135 L101 101Z" fill="#3d4868" data-page-node-id="j0ajTCHZ5qZQ8CqjSmusi8"/>
<path class="hairR" d="M152 104 Q168 137 164 190 Q151 173 143 135 L139 101Z" fill="#3d4868" data-page-node-id="FBmaf45IlKJF7dQt6rDEUs"/>

<!-- 袖子 -->
<path d="M94 145 Q65 132 39 145 Q45 162 68 166 Q83 164 101 156Z" fill="url(#robe)" data-page-node-id="NteuYwCvmFIZF8B3UE5hOI"/>
<path d="M146 145 Q175 132 201 145 Q195 162 172 166 Q157 164 139 156Z" fill="url(#robe)" data-page-node-id="yk8RlmXR8tdd3uPlakKqrB"/>
<path d="M94 145 Q65 133 39 145" fill="none" stroke="#7188c1" stroke-width="2.3" data-page-node-id="eS1hQrRjZ7MuDy4NxMM9oo"/>
<path d="M146 145 Q175 133 201 145" fill="none" stroke="#7188c1" stroke-width="2.3" data-page-node-id="tWOw4rBOEqsrUg59FLQ8hw"/>

<!-- 宽袍主体 -->
<path d="M89 137 Q120 123 151 137 Q164 179 151 219 Q120 233 89 219 Q76 179 89 137Z" fill="url(#robe)" data-page-node-id="l2iM5uRgi0z3BONKNxwlaY"/>
<path d="M93 209 Q120 222 147 209" fill="none" stroke="#7188c1" stroke-width="3" data-page-node-id="xkVpScOQecfmX9qBKfG1qE"/>
<path d="M108 132 L124 156 M132 132 L116 156" fill="none" stroke="#677fb8" stroke-width="2.5" stroke-linecap="round" data-page-node-id="nUtnN8O0HchKjPIxcq7483"/>

<!-- 腰带 -->
<rect x="91" y="165" width="58" height="12" rx="6" fill="#4c639c" data-page-node-id="haGZ0U30Di1uuKOTdySuC1"/>
<rect x="112" y="165" width="16" height="12" fill="#d7bd74" data-page-node-id="1a4vPdi0t7lH7aCE42IXuf"/>

<!-- 焦痕 -->
<path d="M140 190 L148 185 L153 194 L145 201 L136 196Z" fill="#727d97" opacity=".75" data-page-node-id="9zSjZuyDg3oKGIDwcHHxoB"/>
<path d="M141 187 L148 193 L143 197 L150 202" fill="none" stroke="#4c5568" stroke-width="2" data-page-node-id="STE6qkpCTIOdW4aR5Mq7Cf"/>

<!-- 头 -->
<circle cx="77" cy="110" r="8" fill="url(#skin)" data-page-node-id="m8PR2FjCAhzq5sIW1HRuTm"/>
<circle cx="163" cy="110" r="8" fill="url(#skin)" data-page-node-id="JKlkdZF9k8KOKTwpW9ZXUj"/>
<circle cx="120" cy="106" r="42" fill="url(#skin)" data-page-node-id="uRAN8gt6QvhWTftzgRtS0A"/>
<path d="M82 115 Q90 139 120 145 Q150 139 158 115 Q150 135 120 139 Q90 135 82 115Z" fill="#efb58d" opacity=".34" data-page-node-id="eqcOmaPnUWvydh5xcAfRdY"/>

<!-- 头发 -->
<path d="M79 104 Q75 60 120 58 Q165 60 161 104 Q154 78 120 75 Q86 78 79 104Z" fill="#3d4765" data-page-node-id="iaSc6rEA8laGGmHQh0DFZW"/>
<path d="M81 99 Q74 117 80 137 Q89 122 88 103Z" fill="#3d4765" data-page-node-id="NNsatzdRIvxkvVDuj3u0yw"/>
<path d="M159 99 Q166 117 160 137 Q151 122 152 103Z" fill="#3d4765" data-page-node-id="tHgVLbPJO5MkkwCB2rd8ID"/>

<!-- 额头焦痕 -->
<path d="M111 71 Q120 64 129 71 Q126 77 120 79 Q114 77 111 71Z" fill="#555966" opacity=".55" data-page-node-id="9kME68iJF1GBNMxVbyp0S2"/>
<path d="M115 68 L120 75 L125 67" fill="none" stroke="#3d414b" stroke-width="2" data-page-node-id="dMgV1FwD6u64ZNp5OleITE"/>
</g>

<!-- 正常惊慌脸 -->
<g data-page-node-id="DjCZ5wHAhtpjNHvxLASq9L">
<path d="M94 96 Q103 89 111 95 M129 95 Q137 89 146 96" fill="none" stroke="#414963" stroke-width="4" stroke-linecap="round" data-page-node-id="hFiiqXoDgaNUcBypsdTECA"/>
<ellipse cx="103" cy="112" rx="7" ry="9" fill="#343744" data-page-node-id="lky7r3VAFFE1Ewd2kxFJKP"/>
<ellipse cx="137" cy="112" rx="7" ry="9" fill="#343744" data-page-node-id="ECnsJtXjqZ1AOmK1NeOax8"/>
<circle cx="105" cy="108" r="2.5" fill="#fff" data-page-node-id="usLZXf0niN8gDGZlmeOIEg"/>
<circle cx="139" cy="108" r="2.5" fill="#fff" data-page-node-id="y9Kabu55wgq1vrvXE0GPoo"/>
<circle cx="101" cy="115" r="1.2" fill="#fff" data-page-node-id="WJ5vOCgK2IPR9umBfjxoLp"/>
<circle cx="135" cy="115" r="1.2" fill="#fff" data-page-node-id="kHRXIeIOp5gUhYHJP3FpPm"/>
<path d="M96 120 Q103 124 110 120 M130 120 Q137 124 144 120" fill="none" stroke="#9edcff" stroke-width="2.3" stroke-linecap="round" data-page-node-id="bEN6SaiTFbFD5K4SXYiJf5"/>
<g class="tear" data-page-node-id="oMkXq15CWjhXgMKL1F6deX"><path d="M147 122 Q151 130 147 133 Q143 130 147 122Z" fill="#9edcff" data-page-node-id="sHfkpQESogJMTCT7vyfzUx"/></g>
<ellipse cx="91" cy="124" rx="8" ry="4.5" fill="#ff9f95" opacity=".45" data-page-node-id="R2TQtqGYljNVFdhPUHBKWA"/>
<ellipse cx="149" cy="124" rx="8" ry="4.5" fill="#ff9f95" opacity=".45" data-page-node-id="y1wz8lZWXvZbQO2AP7mFU1"/>
<ellipse cx="120" cy="133" rx="7.5" ry="6" fill="#554858" data-page-node-id="0SpYxe0vxp4O5THBmjZX68"/>
<ellipse cx="120" cy="136" rx="4" ry="2" fill="#e78e94" data-page-node-id="CrCwMCUcJrQhUPkXHbSCFk"/>
</g>

<!-- 被劈后的X眼 -->
<g class="shockFace" data-page-node-id="CUMwUa3uWqCu0gMa4qcZ7I">
<circle cx="103" cy="112" r="8" fill="#f4f6ff" data-page-node-id="x1tcwUGtWRdFCgNWfk8non"/>
<circle cx="137" cy="112" r="8" fill="#f4f6ff" data-page-node-id="xqBrHiWT4p8rc5M8rvEKmc"/>
<path d="M98 107 L108 117 M108 107 L98 117 M132 107 L142 117 M142 107 L132 117" stroke="#353845" stroke-width="3" stroke-linecap="round" data-page-node-id="VJVPp5lUpUZCf7SCOO0eud"/>
<ellipse cx="120" cy="134" rx="6" ry="5" fill="#272a32" data-page-node-id="mju49vHAgXeQfKlqa3BPRQ"/>
</g>

<!-- 炸毛 -->
<g class="zapHair" fill="#3d4765" data-page-node-id="IuS5IOEHkqKCXXxE0sA7Kw">
<path d="M92 75 L83 58 L99 68 L97 51 L108 67 L112 48 L119 67 L128 47 L129 68 L145 52 L139 71 L158 61 L147 79Z" data-page-node-id="qz60m9ChljagutDLbjyu49"/>
</g>

<!-- 身上残留电流 -->
<g class="residual1" fill="none" stroke="#ad8aff" stroke-width="2.3" stroke-linecap="round" filter="url(#glow)" data-page-node-id="hYC1iXjHQrfNqTsk7WtV0H">
<path d="M87 144 L79 153 L86 153 L80 164" data-page-node-id="nmfWayS2yFmGT7Qm5JPIl9"/>
<path d="M153 148 L161 156 L155 158 L162 169" data-page-node-id="M4jWWivNiGdPDM587bmVDq"/>
</g>

<g class="residual2" fill="none" stroke="#c4a4ff" stroke-width="2" stroke-linecap="round" data-page-node-id="cwH1z4y9nIQkknUZATFneF">
<path d="M102 182 L96 190 L102 190 L98 198" data-page-node-id="nFpPVT5zgD4L8R4WsvsckS"/>
<path d="M138 185 L144 192 L139 193 L145 201" data-page-node-id="YmZitn5FXTMLItLKuBr1X6"/>
</g>

<!-- 焦烟 -->
<g fill="#55515e" data-page-node-id="FGIfxlX6ou1FSheDaXC1sk">
<circle class="smoke1" cx="103" cy="73" r="5" data-page-node-id="XDa1tSn0wFuGF4uq38xFqT"/>
<circle class="smoke2" cx="113" cy="77" r="4" data-page-node-id="a5eQdex1KF5P8q1pbwIPLv"/>
<circle class="smoke3" cx="137" cy="79" r="4.5" data-page-node-id="YENAmiTWcRLcERETBD7Ke5"/>
</g>

</g>
</g>
</g>

<!-- 上升环绕粒子的前半圈，使四层粒子真正环绕人物。 -->
<g id="orbiting-diamonds-front" filter="url(#glow)" pointer-events="none"></g>

<!-- ==================== 主天雷（从脚下阵眼向上击中修士） ==================== -->
<g class="mainBolt" transform="translate(0 293) scale(1 -1)" filter="url(#bigGlow)" data-page-node-id="LRjfWDHxlPqtFsnrdOhJIQ">

<!-- 粗主雷柱 -->
<path d="M115 33 L108 56 L118 52 L104 77 L117 71 L103 97 L118 88 L106 120 L121 106 L107 144 L131 114 L121 121 L142 90 L128 96 L145 66 L132 72 L127 33Z" fill="url(#evilBolt)" data-page-node-id="LjGd6JZ7qG8UhztxmCdmzf"/>

<!-- 两侧分叉，左右对称 -->
<g fill="none" stroke="#e4d4ff" stroke-width="3" stroke-linecap="round" data-page-node-id="oO3g5MAZwKUzgkPPfPhwIO">
<path d="M112 57 L95 68 L102 56 L87 63" data-page-node-id="01fnHo4prGEHSGXT4sOejF"/>
<path d="M134 57 L151 68 L144 56 L159 63" data-page-node-id="H7ippguRdfLvapqvX3HAGT"/>

<path d="M111 82 L93 93 L101 80 L85 87" data-page-node-id="nx5tpDHhE7Aeu2FAapPBja"/>
<path d="M135 82 L153 93 L145 80 L161 87" data-page-node-id="JwmmqdxzcCan6tkmcI5e63"/>

<path d="M114 108 L96 120 L105 106 L89 114" data-page-node-id="IsbFSvIfR9O3Q78qAnRMc9"/>
<path d="M132 108 L150 120 L141 106 L157 114" data-page-node-id="MSog6lpNEMWjOe7JP1mXFo"/>
</g>
</g>

<!-- ==================== 雷击爆点 ==================== -->
<g transform="translate(120 165)" data-page-node-id="BWfWTrVG6PzJqDBO3CCSue">
<g class="impact" filter="url(#glow)" data-page-node-id="vgyW3RibcAfOTLxaKrdZoD">
<circle r="35" fill="url(#impactGlow)" data-page-node-id="W6Z8DVUNAzNv25bjK50uUk"/>
<path d="M0-28 L4-10 L15-21 L10-6 L28-5 L11 2 L22 14 L6 8 L3 27 L-3 9 L-16 19 L-10 5 L-29 3 L-11-3 L-22-15 L-6-9Z" fill="#f2ebff" opacity=".94" data-page-node-id="2aMvivEHUEVVZYl41KTAft"/>
</g>
</g>

<!-- 冲击波 -->
<g transform="translate(120 155)" data-page-node-id="OXs4I6A4dnDTxMSerMecoj">
<ellipse class="wave1" rx="45" ry="18" fill="none" stroke="#aa8cff" stroke-width="3" data-page-node-id="Z5OFJ5899s2ptcb7ssAVc2"/>
<ellipse class="wave2" rx="40" ry="16" fill="none" stroke="#dbcaff" stroke-width="2" data-page-node-id="IEQK4OyzELxww65MEkEBfQ"/>
</g>

<!-- 爆散雷屑 -->
<g fill="#ceb6ff" data-page-node-id="JMzfCgetvl4sSYlYjlkSGG">
<circle class="spark" cx="120" cy="163" r="2.5" style="--x:-54px;--y:28px" data-page-node-id="mCpCoEZ90mbpbLSpRI3DQn"/>
<circle class="spark" cx="120" cy="163" r="2" style="--x:56px;--y:20px" data-page-node-id="U6B17lolHR1V2dwSxkSVAf"/>
<circle class="spark" cx="120" cy="163" r="2.4" style="--x:-61px;--y:-17px" data-page-node-id="KZDtmjiHIlTfWcCNyUhizI"/>
<circle class="spark" cx="120" cy="163" r="2.2" style="--x:61px;--y:-23px" data-page-node-id="qUHVE5JgJPFBLe0qdI50WT"/>
<path class="spark" d="M117 166 L120 162 L123 166 L120 156Z" style="--x:-42px;--y:-34px" data-page-node-id="njNPWyNjQL12Y6hCqC7ZUo"/>
<path class="spark" d="M117 166 L120 162 L123 166 L120 156Z" style="--x:42px;--y:-34px" data-page-node-id="4qKRKFFe3sdwclpG5Hg2As"/>
</g>

<!-- 击中瞬间全局闪光 -->
<rect class="flash" x="-25" y="-5" width="290" height="315" fill="#f0e9ff" opacity="0" pointer-events="none" data-page-node-id="ZQazKKqxQOBJdSU2OXcBC9"/>

</svg>
